<svg width="50" height="51" viewBox="0 0 50 51" fill="none" xmlns="http://www.w3.org/2000/svg">
<g clip-path="url(#clip0_175_249)">
<path d="M0 25.9096C0 28.9676 0.550098 31.8969 1.55498 34.6052L25 35.6922L48.445 34.6053C49.45 31.8969 50 28.9676 50 25.9096C50 22.8516 49.45 19.9223 48.445 17.214L25 16.127L1.55498 17.2139C0.550098 19.9223 0 22.8516 0 25.9096H0Z" fill="#FFDA44"/>
<path d="M24.9997 0.90918C14.2506 0.90918 5.08701 7.69355 1.55469 17.2136H48.4448C44.9124 7.69355 35.7488 0.90918 24.9997 0.90918V0.90918Z" fill="#D80027"/>
<path d="M48.4447 34.6045H1.55469C5.08701 44.1244 14.2506 50.9089 24.9997 50.9089C35.7488 50.9089 44.9124 44.1244 48.4447 34.6045Z" fill="#496E2D"/>
<path d="M24.9994 17.2139L27.1576 23.8564H34.1428L28.4921 27.9622L30.6503 34.6051L24.9994 30.4996L19.3485 34.6051L21.5071 27.9622L15.8564 23.8564H22.8412L24.9994 17.2139Z" fill="black"/>
</g>
<defs>
<clipPath id="clip0_175_249">
<rect width="50" height="50" fill="white" transform="translate(0 0.90918)"/>
</clipPath>
</defs>
</svg>
