<svg width="50" height="51" viewBox="0 0 50 51" fill="none" xmlns="http://www.w3.org/2000/svg">
<g clip-path="url(#clip0_175_254)">
<path d="M0 25.8188C0 28.8768 0.550098 31.8061 1.55498 34.5144L25 36.6883L48.445 34.5144C49.4499 31.8061 50 28.8768 50 25.8188C50 22.7607 49.4499 19.8314 48.445 17.1231L25 14.9492L1.55498 17.1231C0.550098 19.8314 0 22.7607 0 25.8188H0Z" fill="#FFDA44"/>
<path d="M48.4447 17.1228C44.9124 7.60283 35.7488 0.818359 24.9997 0.818359C14.2506 0.818359 5.08701 7.60283 1.55469 17.1228H48.4447Z" fill="#D80027"/>
<path d="M1.55469 34.5137C5.08701 44.0336 14.2506 50.8181 24.9997 50.8181C35.7488 50.8181 44.9124 44.0336 48.4447 34.5137H1.55469Z" fill="#D80027"/>
</g>
<defs>
<clipPath id="clip0_175_254">
<rect width="50" height="50" fill="white" transform="translate(0 0.818359)"/>
</clipPath>
</defs>
</svg>
