<svg width="50" height="51" viewBox="0 0 50 51" fill="none" xmlns="http://www.w3.org/2000/svg">
<g clip-path="url(#clip0_175_254)">
<path d="M25 50.8184C38.8071 50.8184 50 39.6255 50 25.8184C50 12.0112 38.8071 0.818359 25 0.818359C11.1929 0.818359 0 12.0112 0 25.8184C0 39.6255 11.1929 50.8184 25 50.8184Z" fill="#F0F0F0"/>
<path d="M49.9996 25.8182C49.9996 15.9066 44.2315 7.34258 35.8691 3.29883V48.3374C44.2315 44.2938 49.9996 35.7297 49.9996 25.8182V25.8182Z" fill="#D80027"/>
<path d="M0 25.8182C0 35.7297 5.76807 44.2937 14.1305 48.3375V3.29883C5.76807 7.34258 0 15.9066 0 25.8182Z" fill="#D80027"/>
<path d="M29.3481 29.0785L33.6959 26.9046L31.5221 25.8177V23.6438L27.1742 25.8177L29.3481 21.4698H27.1742L25.0003 18.209L22.8264 21.4698H20.6524L22.8264 25.8177L18.4785 23.6438V25.8177L16.3047 26.9046L20.6524 29.0785L19.5655 31.2524H23.9134V34.5133H26.0872V31.2524H30.4351L29.3481 29.0785Z" fill="#D80027"/>
</g>
<defs>
<clipPath id="clip0_175_254">
<rect width="50" height="50" fill="white" transform="translate(0 0.818359)"/>
</clipPath>
</defs>
</svg>
