<svg width="50" height="51" viewBox="0 0 50 51" fill="none" xmlns="http://www.w3.org/2000/svg">
<g clip-path="url(#clip0_175_254)">
<path d="M25 50.8184C38.8071 50.8184 50 39.6255 50 25.8184C50 12.0112 38.8071 0.818359 25 0.818359C11.1929 0.818359 0 12.0112 0 25.8184C0 39.6255 11.1929 50.8184 25 50.8184Z" fill="#F0F0F0"/>
<path d="M48.445 17.123H1.55498C0.550098 19.8313 0 22.7606 0 25.8187C0 28.8767 0.550098 31.806 1.55498 34.5143H48.4451C49.45 31.806 50 28.8767 50 25.8187C50 22.7606 49.45 19.8313 48.445 17.123Z" fill="#D80027"/>
<path d="M25.0001 0.818359C17.4229 0.818359 10.6335 4.18984 6.04883 9.51396H43.9513C39.3667 4.18984 32.5773 0.818359 25.0001 0.818359V0.818359Z" fill="#0052B4"/>
<path d="M43.9514 42.123H6.04883C10.6335 47.4472 17.4229 50.8187 25.0001 50.8187C32.5773 50.8187 39.3667 47.4472 43.9514 42.123Z" fill="#0052B4"/>
</g>
<defs>
<clipPath id="clip0_175_254">
<rect width="50" height="50" fill="white" transform="translate(0 0.818359)"/>
</clipPath>
</defs>
</svg>
