<svg width="50" height="51" viewBox="0 0 50 51" fill="none" xmlns="http://www.w3.org/2000/svg">
<g clip-path="url(#clip0_175_249)">
<path d="M0 25.9089C0 36.6579 6.78438 45.8215 16.3042 49.3538L18.4782 25.9088L16.3042 2.46387C6.78438 5.99629 0 15.1598 0 25.9089Z" fill="#6DA544"/>
<path d="M50.0005 25.9092C50.0005 12.1021 38.8075 0.90918 25.0005 0.90918C21.9425 0.90918 19.0131 1.45928 16.3047 2.46416V49.3542C19.0131 50.3592 21.9425 50.9092 25.0005 50.9092C38.8075 50.9092 50.0005 39.7162 50.0005 25.9092Z" fill="#D80027"/>
<path d="M16.304 34.6051C21.1065 34.6051 24.9996 30.7119 24.9996 25.9095C24.9996 21.107 21.1065 17.2139 16.304 17.2139C11.5016 17.2139 7.6084 21.107 7.6084 25.9095C7.6084 30.7119 11.5016 34.6051 16.304 34.6051Z" fill="#FFDA44"/>
<path d="M11.4131 21.5615V26.9963C11.4131 29.6977 13.6029 31.8876 16.3044 31.8876C19.0059 31.8876 21.1957 29.6978 21.1957 26.9963V21.5615H11.4131Z" fill="#D80027"/>
<path d="M16.3043 28.6266C15.4053 28.6266 14.6738 27.8951 14.6738 26.9961V24.8223H17.9347V26.9962C17.9347 27.8951 17.2032 28.6266 16.3043 28.6266Z" fill="#F0F0F0"/>
</g>
<defs>
<clipPath id="clip0_175_249">
<rect width="50" height="50" fill="white" transform="translate(0 0.90918)"/>
</clipPath>
</defs>
</svg>
