<svg width="183" height="64" viewBox="0 0 183 64" fill="none" xmlns="http://www.w3.org/2000/svg">
<g filter="url(#filter0_d_122_251)">
<path fill-rule="evenodd" clip-rule="evenodd" d="M48.5126 10.6354V8.55692L42.767 10.6925H42.7561V12.8253H42.767L48.5126 14.9609V12.8798L45.5664 11.7535L48.5126 10.6326V10.6354Z" fill="#34AE72"/>
<path fill-rule="evenodd" clip-rule="evenodd" d="M81.7922 14.8575V12.7791L84.7358 11.661L81.7922 10.5428V8.46439L87.5297 10.6H87.5433V12.7355H87.5297L81.7922 14.8602V14.8575ZM79.3275 5.52356L75.9541 16.3538H77.9564L81.3298 5.52356H79.3275Z" fill="#34AE72"/>
<path d="M53.8066 8.24973V15.6462H51.8311V8.24973H53.8066ZM51.708 6.32199C51.708 6.03488 51.8083 5.7979 52.0088 5.61105C52.2093 5.4242 52.4782 5.33078 52.8154 5.33078C53.1481 5.33078 53.4147 5.4242 53.6152 5.61105C53.8203 5.7979 53.9229 6.03488 53.9229 6.32199C53.9229 6.6091 53.8203 6.84608 53.6152 7.03293C53.4147 7.21978 53.1481 7.3132 52.8154 7.3132C52.4782 7.3132 52.2093 7.21978 52.0088 7.03293C51.8083 6.84608 51.708 6.6091 51.708 6.32199ZM58.6123 15.6462H56.4453L56.459 14.0466H58.6123C59.1501 14.0466 59.6035 13.9258 59.9727 13.6843C60.3418 13.4382 60.6198 13.0805 60.8066 12.6111C60.998 12.1417 61.0938 11.5743 61.0938 10.9089V10.4236C61.0938 9.91314 61.0391 9.46424 60.9297 9.07687C60.8249 8.6895 60.6676 8.36366 60.458 8.09933C60.2484 7.83501 59.9909 7.63677 59.6855 7.50461C59.3802 7.36789 59.0293 7.29953 58.6328 7.29953H56.4043V5.69308H58.6328C59.2982 5.69308 59.9066 5.80702 60.458 6.03488C61.014 6.25819 61.4948 6.57948 61.9004 6.99875C62.306 7.41802 62.6182 7.91932 62.8369 8.50266C63.0602 9.08143 63.1719 9.72629 63.1719 10.4372V10.9089C63.1719 11.6153 63.0602 12.2601 62.8369 12.8435C62.6182 13.4268 62.306 13.9281 61.9004 14.3474C61.4993 14.7621 61.0186 15.0834 60.458 15.3112C59.902 15.5346 59.2868 15.6462 58.6123 15.6462ZM57.6074 5.69308V15.6462H55.5566V5.69308H57.6074ZM65.5986 5.69308H67.335L69.8916 13.0007L72.4482 5.69308H74.1846L70.5889 15.6462H69.1943L65.5986 5.69308ZM64.6621 5.69308H66.3916L66.7061 12.8161V15.6462H64.6621V5.69308ZM73.3916 5.69308H75.1279V15.6462H73.0771V12.8161L73.3916 5.69308Z" fill="#1DE58E"/>
</g>
<g filter="url(#filter1_d_122_251)">
<path d="M97.0796 17.9981C95.1533 17.9981 93.1295 17.6331 91.5433 16.754V1.24411C93.1046 0.389878 95.1284 2.85548e-05 97.0796 2.85548e-05C99.0307 2.85548e-05 101.007 0.365035 102.566 1.24411V7.19505H98.639V3.14558C98.1765 2.95066 97.6147 2.87804 97.0547 2.87804C96.4948 2.87804 95.9807 2.95066 95.4934 3.14558V14.8525C95.9559 15.0475 96.4929 15.1201 97.0547 15.1201C97.6166 15.1201 98.1517 15.0475 98.639 14.8525V10.805H102.566V16.7559C101.03 17.6102 99.0059 17.9752 97.0796 18V17.9981Z" fill="#1DE58E"/>
<path d="M109.931 17.9981C107.858 17.9981 105.859 17.5585 104.273 16.6565V1.3167C105.834 0.439536 107.835 0 109.931 0C112.028 0 113.979 0.414693 115.54 1.3167V16.6565C114.004 17.5585 111.98 17.9732 109.931 17.9981ZM111.615 3.19524C111.152 3.00031 110.591 2.90285 109.908 2.90285C109.226 2.90285 108.689 3.00031 108.225 3.19524V14.7799C108.687 14.9997 109.249 15.0971 109.908 15.0971C110.568 15.0971 111.128 14.9997 111.615 14.7799V3.19524Z" fill="#1DE58E"/>
<path d="M122.393 11.4127H121.344V17.7783H117.369V0.219779H122.393C124.784 0.219779 126.588 0.707092 128.002 1.70656V9.92589C126.613 10.9024 124.782 11.4127 122.393 11.4127ZM124.052 3.24303C123.687 2.97548 123.198 2.85318 122.368 2.85318H121.294V8.77927H122.368C123.173 8.77927 123.66 8.65697 124.052 8.41427V3.24303Z" fill="#1DE58E"/>
<path d="M136.317 17.7783V11.4127H133.391V17.7783H129.441V1.29185C130.88 0.437625 132.904 0 134.855 0C136.806 0 138.805 0.439537 140.244 1.29185V17.7783H136.317ZM136.317 3.04809C135.902 2.85316 135.39 2.7557 134.853 2.7557C134.316 2.7557 133.804 2.85316 133.389 3.04809V8.63211H136.315V3.04809H136.317Z" fill="#1DE58E"/>
</g>
<path d="M14.7129 47.9248H19.0928C19.0049 49.3604 18.6094 50.6348 17.9062 51.748C17.2129 52.8613 16.2412 53.7305 14.9912 54.3555C13.751 54.9805 12.2568 55.293 10.5088 55.293C9.1416 55.293 7.91602 55.0586 6.83203 54.5898C5.74805 54.1113 4.82031 53.4277 4.04883 52.5391C3.28711 51.6504 2.70605 50.5762 2.30566 49.3164C1.90527 48.0566 1.70508 46.6455 1.70508 45.083V43.6035C1.70508 42.041 1.91016 40.6299 2.32031 39.3701C2.74023 38.1006 3.33594 37.0215 4.10742 36.1328C4.88867 35.2441 5.82129 34.5605 6.90527 34.082C7.98926 33.6035 9.2002 33.3643 10.5381 33.3643C12.3154 33.3643 13.8145 33.6865 15.0352 34.3311C16.2656 34.9756 17.2178 35.8643 17.8916 36.9971C18.5752 38.1299 18.9854 39.4189 19.1221 40.8643H14.7275C14.6787 40.0049 14.5078 39.2773 14.2148 38.6816C13.9219 38.0762 13.4775 37.6221 12.8818 37.3193C12.2959 37.0068 11.5146 36.8506 10.5381 36.8506C9.80566 36.8506 9.16602 36.9873 8.61914 37.2607C8.07227 37.5342 7.61328 37.9492 7.24219 38.5059C6.87109 39.0625 6.59277 39.7656 6.40723 40.6152C6.23145 41.4551 6.14355 42.4414 6.14355 43.5742V45.083C6.14355 46.1865 6.22656 47.1582 6.39258 47.998C6.55859 48.8281 6.8125 49.5312 7.1543 50.1074C7.50586 50.6738 7.95508 51.1035 8.50195 51.3965C9.05859 51.6797 9.72754 51.8213 10.5088 51.8213C11.4268 51.8213 12.1836 51.6748 12.7793 51.3818C13.375 51.0889 13.8291 50.6543 14.1416 50.0781C14.4639 49.502 14.6543 48.7842 14.7129 47.9248ZM30.6504 37.3193L24.8496 55H20.1768L28.1016 33.6719H31.0752L30.6504 37.3193ZM35.4697 55L29.6543 37.3193L29.1855 33.6719H32.1885L40.1572 55H35.4697ZM35.2061 47.0605V50.5029H23.9414V47.0605H35.2061ZM55.8457 51.5723V55H45.1084V51.5723H55.8457ZM46.5293 33.6719V55H42.1348V33.6719H46.5293ZM72.6768 51.5723V55H61.3242V51.5723H72.6768ZM62.7598 33.6719V55H58.3652V33.6719H62.7598ZM71.1973 42.3584V45.6982H61.3242V42.3584H71.1973ZM72.6621 33.6719V37.1143H61.3242V33.6719H72.6621ZM92.5986 33.6719V55H88.2041L79.6348 40.7031V55H75.2402V33.6719H79.6348L88.2188 47.9834V33.6719H92.5986ZM102.97 55H98.3262L98.3555 51.5723H102.97C104.122 51.5723 105.094 51.3135 105.885 50.7959C106.676 50.2686 107.271 49.502 107.672 48.4961C108.082 47.4902 108.287 46.2744 108.287 44.8486V43.8086C108.287 42.7148 108.17 41.7529 107.936 40.9229C107.711 40.0928 107.374 39.3945 106.925 38.8281C106.476 38.2617 105.924 37.8369 105.27 37.5537C104.615 37.2607 103.863 37.1143 103.014 37.1143H98.2383V33.6719H103.014C104.439 33.6719 105.743 33.916 106.925 34.4043C108.116 34.8828 109.146 35.5713 110.016 36.4697C110.885 37.3682 111.554 38.4424 112.022 39.6924C112.501 40.9326 112.74 42.3145 112.74 43.8379V44.8486C112.74 46.3623 112.501 47.7441 112.022 48.9941C111.554 50.2441 110.885 51.3184 110.016 52.2168C109.156 53.1055 108.126 53.7939 106.925 54.2822C105.733 54.7607 104.415 55 102.97 55ZM100.816 33.6719V55H96.4219V33.6719H100.816ZM124.283 37.3193L118.482 55H113.81L121.734 33.6719H124.708L124.283 37.3193ZM129.103 55L123.287 37.3193L122.818 33.6719H125.821L133.79 55H129.103ZM128.839 47.0605V50.5029H117.574V47.0605H128.839ZM121.808 32.4707L124.679 27.959H129.264L125.235 32.4707H121.808ZM135.768 33.6719H143.722C145.353 33.6719 146.754 33.916 147.926 34.4043C149.107 34.8926 150.016 35.6152 150.65 36.5723C151.285 37.5293 151.603 38.7061 151.603 40.1025C151.603 41.2451 151.407 42.2266 151.017 43.0469C150.636 43.8574 150.094 44.5361 149.391 45.083C148.697 45.6201 147.882 46.0498 146.944 46.3721L145.553 47.1045H138.639L138.609 43.6768H143.751C144.522 43.6768 145.162 43.54 145.67 43.2666C146.178 42.9932 146.559 42.6123 146.812 42.124C147.076 41.6357 147.208 41.0693 147.208 40.4248C147.208 39.7412 147.081 39.1504 146.827 38.6523C146.573 38.1543 146.188 37.7734 145.67 37.5098C145.152 37.2461 144.503 37.1143 143.722 37.1143H140.162V55H135.768V33.6719ZM147.691 55L142.828 45.4932L147.472 45.4639L152.394 54.7949V55H147.691ZM159.659 33.6719V55H155.279V33.6719H159.659ZM181.295 43.8379V44.8486C181.295 46.4697 181.075 47.9248 180.636 49.2139C180.196 50.5029 179.576 51.6016 178.775 52.5098C177.975 53.4082 177.018 54.0967 175.904 54.5752C174.801 55.0537 173.575 55.293 172.228 55.293C170.89 55.293 169.664 55.0537 168.551 54.5752C167.447 54.0967 166.49 53.4082 165.68 52.5098C164.869 51.6016 164.239 50.5029 163.79 49.2139C163.351 47.9248 163.131 46.4697 163.131 44.8486V43.8379C163.131 42.207 163.351 40.752 163.79 39.4727C164.229 38.1836 164.85 37.085 165.65 36.1768C166.461 35.2686 167.418 34.5752 168.521 34.0967C169.635 33.6182 170.86 33.3789 172.198 33.3789C173.546 33.3789 174.771 33.6182 175.875 34.0967C176.988 34.5752 177.945 35.2686 178.746 36.1768C179.557 37.085 180.182 38.1836 180.621 39.4727C181.07 40.752 181.295 42.207 181.295 43.8379ZM176.856 44.8486V43.8086C176.856 42.6758 176.754 41.6797 176.549 40.8203C176.344 39.9609 176.041 39.2383 175.641 38.6523C175.24 38.0664 174.752 37.627 174.176 37.334C173.6 37.0312 172.94 36.8799 172.198 36.8799C171.456 36.8799 170.797 37.0312 170.221 37.334C169.654 37.627 169.171 38.0664 168.771 38.6523C168.38 39.2383 168.082 39.9609 167.877 40.8203C167.672 41.6797 167.569 42.6758 167.569 43.8086V44.8486C167.569 45.9717 167.672 46.9678 167.877 47.8369C168.082 48.6963 168.385 49.4238 168.785 50.0195C169.186 50.6055 169.674 51.0498 170.25 51.3525C170.826 51.6553 171.485 51.8066 172.228 51.8066C172.97 51.8066 173.629 51.6553 174.205 51.3525C174.781 51.0498 175.265 50.6055 175.655 50.0195C176.046 49.4238 176.344 48.6963 176.549 47.8369C176.754 46.9678 176.856 45.9717 176.856 44.8486Z" fill="url(#paint0_linear_122_251)"/>
<defs>
<filter id="filter0_d_122_251" x="38.7561" y="5.33078" width="52.7872" height="19.023" filterUnits="userSpaceOnUse" color-interpolation-filters="sRGB">
<feFlood flood-opacity="0" result="BackgroundImageFix"/>
<feColorMatrix in="SourceAlpha" type="matrix" values="0 0 0 0 0 0 0 0 0 0 0 0 0 0 0 0 0 0 127 0" result="hardAlpha"/>
<feOffset dy="4"/>
<feGaussianBlur stdDeviation="2"/>
<feComposite in2="hardAlpha" operator="out"/>
<feColorMatrix type="matrix" values="0 0 0 0 0 0 0 0 0 0 0 0 0 0 0 0 0 0 0.25 0"/>
<feBlend mode="normal" in2="BackgroundImageFix" result="effect1_dropShadow_122_251"/>
<feBlend mode="normal" in="SourceGraphic" in2="effect1_dropShadow_122_251" result="shape"/>
</filter>
<filter id="filter1_d_122_251" x="87.5433" y="0" width="56.7007" height="26" filterUnits="userSpaceOnUse" color-interpolation-filters="sRGB">
<feFlood flood-opacity="0" result="BackgroundImageFix"/>
<feColorMatrix in="SourceAlpha" type="matrix" values="0 0 0 0 0 0 0 0 0 0 0 0 0 0 0 0 0 0 127 0" result="hardAlpha"/>
<feOffset dy="4"/>
<feGaussianBlur stdDeviation="2"/>
<feComposite in2="hardAlpha" operator="out"/>
<feColorMatrix type="matrix" values="0 0 0 0 0 0 0 0 0 0 0 0 0 0 0 0 0 0 0.25 0"/>
<feBlend mode="normal" in2="BackgroundImageFix" result="effect1_dropShadow_122_251"/>
<feBlend mode="normal" in="SourceGraphic" in2="effect1_dropShadow_122_251" result="shape"/>
</filter>
<linearGradient id="paint0_linear_122_251" x1="91.5" y1="26" x2="91.5" y2="64" gradientUnits="userSpaceOnUse">
<stop stop-color="white"/>
<stop offset="1" stop-color="#D9D9D9" stop-opacity="0.8"/>
</linearGradient>
</defs>
</svg>
